{"title":"Ellen_Justin_Bieber_Usher_James_Blunt_720p_20110209_TTL","uid":6181294,"size":1340240212,"categoryP":"video","categoryS":"hd___tv_shows","magnet":"?xt=urn:btih:ff8e682af1ecf7b3bdca7c8e0b80915583b2d012&amp;dn=Ellen_Justin_Bieber_Usher_James_Blunt_720p_20110209_TTL&amp;tr=udp%3A%2F%2Ftracker.openbittorrent.com%3A80&amp;tr=udp%3A%2F%2Fopen.demonii.com%3A1337&amp;tr=udp%3A%2F%2Ftracker.coppersurfer.tk%3A6969&amp;tr=udp%3A%2F%2Fexodus.desync.com%3A6969","seeders":0,"leechers":1,"uploader":"thetorrentlord","files":2,"time":1297964218,"description":"Ellen_Justin_Bieber_Usher_James_Blunt_720p_20110209_TTL.avi\nFormat                           : AVI\nFormat/Info                      : Audio Video Interleave\nFormat profile                   : OpenDML\nFile size                        : 1.25 GiB\nDuration                         : 1h 34mn\nOverall bit rate                 : 1 882 Kbps\nMovie name                       : Ellen_Justin_Bieber_Usher_James_Blunt_720p_20110209_TTL.mpg\nDirector                         : created.with.SUPER(C).v2010.bld.37\nWriting application              : SUPER(C)   \n\nVideo\nID                               : 0\nFormat                           : MPEG-4 Visual\nFormat profile                   : Simple@L3\nFormat settings, BVOP            : No\nFormat settings, QPel            : No\nFormat settings, GMC             : No warppoints\nFormat settings, Matrix          : Default (H.263)\nCodec ID                         : XVID\nCodec ID/Hint                    : XviD\nDuration                         : 1h 34mn\nBit rate                         : 1 828 Kbps\nWidth                            : 1 280 pixels\nHeight                           : 720 pixels\nDisplay aspect ratio             : 16:9\nFrame rate                       : 29.970 fps\nResolution                       : 8 bits\nColorimetry                      : 4:2:0\nScan type                        : Progressive\nBits/(Pixel*Frame)               : 0.066\nStream size                      : 1.21 GiB (97%)\nWriting library                  : XviD 1.1.2 (UTC 2006-11-01)\n\nAudio\nID                               : 1\nFormat                           : MPEG Audio\nFormat version                   : Version 1\nFormat profile                   : Layer 3\nMode                             : Joint stereo\nFormat_Settings_ModeExtension    : MS Stereo\nCodec ID                         : 55\nCodec ID/Hint                    : MP3\nDuration                         : 39mn 43s\nBit rate mode                    : Constant\nBit rate                         : 112 Kbps\nChannel(s)                       : 2 channels\nSampling rate                    : 48.0 KHz\nStream size                      : 31.8 MiB (2%)\nAlignment                        : Aligned on interleaves\nInterleave, duration             : 24 ms (0.72 video frame)\nInterleave, preload duration     : 24 ms\n\n","torrent":{"xt":"urn:btih:ff8e682af1ecf7b3bdca7c8e0b80915583b2d012","amp;dn":"Ellen_Justin_Bieber_Usher_James_Blunt_720p_20110209_TTL","amp;tr":["udp%3A%2F%2Ftracker.openbittorrent.com%3A80","udp%3A%2F%2Fopen.demonii.com%3A1337","udp%3A%2F%2Ftracker.coppersurfer.tk%3A6969","udp%3A%2F%2Fexodus.desync.com%3A6969"],"infoHash":"ff8e682af1ecf7b3bdca7c8e0b80915583b2d012","infoHashBuffer":{"type":"Buffer","data":[255,142,104,42,241,236,247,179,189,202,124,142,11,128,145,85,131,178,208,18]},"announce":[],"urlList":[]}}